/* XPM */
static char * letter_p_xpm[] = {
"18 36 5 1",
" 	c None",
".	c #FFFFFF",
"+	c #6E44CD",
"@	c #4E00FF",
"#	c #8C6FCD",
"                  ",
"                  ",
"                  ",
"                  ",
"                  ",
"                  ",
"                  ",
"                  ",
"                  ",
"                  ",
"                  ",
"                  ",
"                  ",
"                  ",
"                  ",
"   ...........    ",
"  ..+@+@+@+@+..   ",
"  .+@+@+@+@+@+..  ",
"  .@+.......+@+.  ",
"  .+@.     ..#@.  ",
"  .@+.      .@+.  ",
"  .+@.      .+@.  ",
"  .@+.      .@+.  ",
"  .+@.     ..+@.  ",
"  .@+.......+@+.  ",
"  .+@+@+@+@+@+..  ",
"  .@+@+@+@+@+..   ",
"  .+@.........    ",
"  .@+.            ",
"  .+@.            ",
"  .@+.            ",
"  .+@.            ",
"  .@+.            ",
"  ....            ",
"                  ",
"                  "};
