/* XPM */
static char * poll_engine_fso_xpm[] = {
"40 40 4 1",
" 	c None",
".	c #B2B2B2",
"+	c #FF0000",
"@	c #002800",
"                     ..     ..          ",
"                   ....   +++.          ",
"                  ..+.   .+++           ",
"                 ..+..  ..+++           ",
"                ..+..  ..+..            ",
"               ..+..  ..+..             ",
"              ..+..  ..+..              ",
"             ..+..  ..+..               ",
"            ..+..  ..+..                ",
"           ..+..  ..+..                 ",
"          ..+..  ..+..                  ",
"         +++..  ..+..                   ",
"         +++.   .+..                    ",
"        .+++   ....                     ",
"        ..     ..                       ",
"                                        ",
"                                        ",
"                                        ",
"                                        ",
"                                        ",
"                                        ",
"                                        ",
"      @@@@@@@    @@@@       @@@@        ",
"      @@        @@  @@     @@  @@       ",
"      @@       @@         @@    @@      ",
"      @@       @@        @@      @@     ",
"      @@        @@       @@      @@     ",
"      @@@@@@@    @@@@    @@      @@     ",
"      @@            @@   @@      @@     ",
"      @@             @@  @@      @@     ",
"      @@             @@   @@    @@      ",
"      @@       @@   @@     @@  @@       ",
"      @@        @@@@@       @@@@        ",
"                                        ",
"                                        ",
"                                        ",
"                                        ",
"                                        ",
"                                        ",
"                                        "};
