/* XPM */
static char * poll_engine_ubx_xpm[] = {
"40 40 3 1",
" 	c None",
".	c #B2B2B2",
"+	c #FF0000",
"                    ..     ..           ",
"                  ....   +++.           ",
"                 ..+.   .+++            ",
"                ..+..  ..+++            ",
"               ..+..  ..+..             ",
"              ..+..  ..+..              ",
"             ..+..  ..+..               ",
"            ..+..  ..+..                ",
"           ..+..  ..+..                 ",
"          ..+..  ..+..                  ",
"         ..+..  ..+..                   ",
"        +++..  ..+..                    ",
"        +++.   .+..                     ",
"       .+++   ....                      ",
"       ..     ..                        ",
"                                        ",
"                                        ",
"                                        ",
"                                        ",
"                                        ",
"                                        ",
"                                        ",
"                                        ",
"                                        ",
"                                        ",
"                                        ",
"                                        ",
"    ++    ++    +++++++                 ",
"    ++    ++    ++    ++  ++       ++   ",
"    ++    ++    ++    ++   ++     ++    ",
"    ++    ++    ++    ++    ++   ++     ",
"    ++    ++    ++   ++      ++ ++      ",
"    ++    ++    ++++++        +++       ",
"    ++    ++    ++   ++       +++       ",
"    ++    ++    ++    ++     ++ ++      ",
"    ++    ++    ++    ++    ++   ++     ",
"     ++  ++     ++    ++   ++     ++    ",
"      ++++      +++++++   ++       ++   ",
"                                        ",
"                                        "};
