/* XPM */
static char * track_off_xpm[] = {
"41 40 4 1",
" 	c None",
".	c #436843",
"+	c #FF0000",
"@	c #FFFFFF",
"                                         ",
"                                         ",
"                 ..                      ",
"                ....                     ",
"               .....   ..                ",
"               .....  ....               ",
"          ...  .....  ....               ",
"         .....  ...   ....    ....       ",
"         .....   .    ....   .....       ",
"     ..  .....         ..    .....       ",
"    ....  ...               ......       ",
"    ....   .     ......     .....        ",
"    ....   +++@.......@+++  ....         ",
"    ....   ++++@.....@++++               ",
"     ..    +++++@...@+++++.              ",
"          .@+++++@.@+++++@..             ",
"         ...@+++++@+++++@...             ",
"         ....@+++++++++@.....            ",
"        ......@+++++++@.....             ",
"        .......@+++++@......             ",
"       .......@+++++++@....              ",
"       ......@+++++++++@..               ",
"       .....@+++++@+++++@                ",
"      .....@+++++@.@+++++@               ",
"      .....+++++@...@+++++               ",
"      .....++++@..   @++++               ",
"      .....+++@...    @+++               ",
"       ............                      ",
"       ............                      ",
"       .............                     ",
"        .............                    ",
"         .............                   ",
"         .............                   ",
"          ............                   ",
"          ............                   ",
"            ..........                   ",
"             ........                    ",
"                ...                      ",
"                                         ",
"                                         "};
