/* XPM */
static char * letter_s_xpm[] = {
"18 36 4 1",
" 	c None",
".	c #FFFFFF",
"+	c #6E44CD",
"@	c #4E00FF",
"                  ",
"                  ",
"                  ",
"                  ",
"                  ",
"                  ",
"                  ",
"                  ",
"                  ",
"                  ",
"                  ",
"                  ",
"                  ",
"                  ",
"                  ",
"   .............  ",
"  ..+@+@+@+@+@+.  ",
"  .+@+@+@+@+@+@.  ",
"  .@+...........  ",
"  .+@.            ",
"  .@+..........   ",
"  .+@+@+@+@+@+..  ",
"  ..+@+@+@+@+@+.  ",
"   ..........+@.  ",
"            .@+.  ",
"  ...........+@.  ",
"  .@+@+@+@+@+@+.  ",
"  .+@+@+@+@+@+..  ",
"  .............   ",
"                  ",
"                  ",
"                  ",
"                  ",
"                  ",
"                  ",
"                  "};
